<svg xmlns="http://www.w3.org/2000/svg" width="400" height="400" viewBox="0 0 400 400"><g fill-rule="evenodd" clip-rule="evenodd"><path fill="#636363" d="M50.079 86.215c.316.316.163.632 0 .947v-.947z"/><path fill="#262626" d="M50.079 306.005c.217.315.277.632 0 .947v-.947z"/><g fill="#010101"><path d="M350.079 232.11c-.283.184-.223.509-.286.767-1.078 4.364-4.906 7.433-9.401 7.438-14.048.016-28.096.042-42.144-.006-11.007-.037-20.383-8.29-21.939-19.19-1.779-12.46 6.691-23.812 19.108-25.597a23.084 23.084 0 0 1 3.305-.21c13.758.006 27.517-.012 41.275.013 4.27.008 7.459 1.892 9.359 5.774.324.665.485 1.409.723 2.116v28.895z"/><path d="M339.092 253.188c-12.894-.001-25.788.01-38.683-.012-1.89-.003-3.786-.074-5.667-.286-9.433-1.064-17.303-5.17-23.325-12.495-6.713-8.164-9.296-17.633-7.648-28.058 1.795-11.362 7.859-19.937 17.922-25.545 4.998-2.786 10.419-4.189 16.18-4.185 13.552.013 27.104.004 40.656.004 1.974 0 2.001-.027 2.001-1.966.001-16.499-.003-32.998.009-49.497 0-1.215-.089-2.423-.221-3.62-.776-7.027-3.629-13.076-8.702-18.034-5.352-5.23-11.815-7.924-19.254-8.354-1.003-.059-1.039-.067-1.04-1.11-.005-3.185.012-6.368-.008-9.553-.01-1.576.049-3.15-.118-4.729-.952-8.996-7.427-16.647-16.221-19.256-1.347-.399-2.729-.477-4.104-.645H70.132c-.661.166-1.351.082-2.012.226-7.811 1.687-13.267 6.256-16.49 13.526-.866 1.951-1.367 4.011-1.55 6.143v.474c.129.316.129.632 0 .947v218.843c.129.315.129.632 0 .947v1.105c.167 2 .483 3.972 1.104 5.889 1.657 5.118 4.416 9.529 8.466 13.091 5.223 4.591 11.25 7.292 18.274 7.294 78.207.021 156.414.01 234.621.024 4.42.001 8.54-1.102 12.429-3.104 4.734-2.438 8.548-5.914 11.361-10.451 2.923-4.714 4.51-9.826 4.51-15.398v-50.445c-.002-1.748-.024-1.77-1.753-1.77zM74.554 101.372c-5.179 0-9.376-2.793-11.131-7.393-2.823-7.397 2.655-15.438 10.569-15.492 3.5-.023 6.999-.004 10.499-.004l202.315.001c5.599 0 10.136 3.549 11.409 8.918.195.823.269 1.659.269 2.504-.001 3.604-.017 7.21.016 10.814.005.592-.193.665-.711.663-5.946-.018-11.894-.011-17.84-.011H185.54c-36.996.001-73.991.002-110.986 0zm145.871 162.117c-4.573 6.507-10.998 10.311-18.638 12.195-4.425 1.092-8.936 1.315-13.467 1.329-2.21.006-4.42.038-6.63.003-.68-.012-.929.115-.914.873.054 2.709.024 5.42.02 8.13-.003 2.637-1.406 4.032-4.046 4.032-3.026.001-6.052.004-9.078-.001-2.339-.004-3.783-1.434-3.795-3.782-.014-2.842-.015-5.684.007-8.525.004-.525-.107-.729-.686-.725a515.12 515.12 0 0 1-9.709-.003c-.608-.007-.662.225-.658.728.021 2.763.012 5.525.01 8.287-.002 2.628-1.409 4.021-4.055 4.021-3.026.001-6.052.004-9.078-.001-2.335-.004-3.774-1.445-3.78-3.794-.008-2.842-.015-5.684.01-8.525.005-.542-.136-.718-.698-.712-2.763.027-5.525.017-8.288.011-2.268-.006-3.257-1.009-3.258-3.284-.001-2.474-.004-4.947.001-7.42.004-2.048 1.066-3.104 3.114-3.105 2.79-.002 5.579-.023 8.367.017.646.01.763-.192.762-.79-.016-14.813-.013-29.627-.013-44.441 0-14.761-.005-29.522.016-44.284.001-.705-.15-.932-.896-.92-2.973.047-5.946.023-8.92.018-1.805-.004-2.431-.631-2.432-2.413a5026.3 5026.3 0 0 1 0-8.683c.002-1.642.658-2.303 2.288-2.306 3.026-.005 6.052-.021 9.078.014.664.008.9-.11.886-.849-.052-2.788-.025-5.577-.02-8.366.005-2.406 1.427-3.835 3.815-3.838 3.105-.004 6.21-.005 9.314.001 2.269.004 3.767 1.474 3.78 3.738.017 2.868.018 5.736-.008 8.604-.005.538.122.714.688.709 3.21-.028 6.42-.03 9.63.001.599.005.746-.164.739-.751-.032-2.789-.019-5.578-.013-8.367.005-2.55 1.403-3.935 3.96-3.936 3.052-.001 6.104-.004 9.157.002 2.313.003 3.789 1.469 3.802 3.799.015 2.841.024 5.684-.013 8.524-.008.613.177.729.75.728 4.103-.019 8.208-.065 12.3.358 8.149.845 15.33 3.73 20.878 9.98 3.655 4.118 5.774 8.983 6.605 14.403.898 5.858.428 11.593-1.881 17.096-2.409 5.742-6.449 10.022-11.902 12.993-.092.05-.187.097-.277.149-.196.113-.496.151-.481.449.017.309.322.288.533.362.668.234 1.349.437 2.003.705 8.038 3.29 13.2 9.28 15.587 17.481 3.099 10.635 2.034 20.831-4.466 30.081z"/></g><path fill="#010101" d="M153.21 242.654c0-6.603.006-13.206-.013-19.809-.001-.542.119-.702.684-.701 12.101.021 24.203-.041 36.303.05 5.511.042 10.415 1.86 14.326 5.9 2.932 3.029 4.548 6.722 5.133 10.854.722 5.093.113 10.013-2.283 14.627-2.936 5.652-7.603 8.724-13.939 9.333a72.622 72.622 0 0 1-7.01.312 9971.098 9971.098 0 0 0-32.357.012c-.679.002-.866-.138-.862-.847.031-6.576.018-13.154.018-19.731zm18.659-33.907c-5.842 0-11.684-.01-17.525.015-.592.003-.728-.142-.727-.729.02-11.499.02-22.998 0-34.497-.001-.603.159-.729.739-.728 10.552.019 21.104.003 31.655.02 3.113.005 6.178.374 9.173 1.307 3.03.943 5.433 2.726 6.99 5.438 4.093 7.129 4.253 14.451.212 21.596-2.886 5.101-7.699 7.411-13.467 7.541-5.681.128-11.367.027-17.05.027v.01z"/></g></svg>