<svg xmlns="http://www.w3.org/2000/svg" xmlns:xlink="http://www.w3.org/1999/xlink" x="0px" y="0px" width="400px" height="400px" viewBox="0 0 400 400" xml:space="preserve"> <g id="Calque_2" display="none"> <rect x="0.079" y="0.101" display="inline" fill="#084287" width="400" height="400"></rect> </g> <g id="Black"> <g> <path fill-rule="evenodd" clip-rule="evenodd" fill="#636363" d="M50.079,86.215c0.316,0.316,0.163,0.632,0,0.947 C50.079,86.847,50.079,86.531,50.079,86.215z"></path> <path fill-rule="evenodd" clip-rule="evenodd" fill="#262626" d="M50.079,306.005c0.217,0.315,0.277,0.632,0,0.947 C50.079,306.637,50.079,306.32,50.079,306.005z"></path> <g> <path fill-rule="evenodd" clip-rule="evenodd" fill="#010101" d="M350.079,232.11c-0.283,0.184-0.223,0.509-0.286,0.767 c-1.078,4.364-4.906,7.433-9.401,7.438c-14.048,0.016-28.096,0.042-42.144-0.006c-11.007-0.037-20.383-8.29-21.939-19.19 c-1.779-12.46,6.691-23.812,19.108-25.597c1.094-0.157,2.197-0.211,3.305-0.21c13.758,0.006,27.517-0.012,41.275,0.013 c4.27,0.008,7.459,1.892,9.359,5.774c0.324,0.665,0.485,1.409,0.723,2.116C350.079,212.847,350.079,222.479,350.079,232.11z"></path> <path fill-rule="evenodd" clip-rule="evenodd" fill="#010101" d="M339.092,253.188c-12.894-0.001-25.788,0.01-38.683-0.012 c-1.89-0.003-3.786-0.074-5.667-0.286c-9.433-1.064-17.303-5.17-23.325-12.495c-6.713-8.164-9.296-17.633-7.648-28.058 c1.795-11.362,7.859-19.937,17.922-25.545c4.998-2.786,10.419-4.189,16.18-4.185c13.552,0.013,27.104,0.004,40.656,0.004 c1.974,0,2.001-0.027,2.001-1.966c0.001-16.499-0.003-32.998,0.009-49.497c0-1.215-0.089-2.423-0.221-3.62 c-0.776-7.027-3.629-13.076-8.702-18.034c-5.352-5.23-11.815-7.924-19.254-8.354c-1.003-0.059-1.039-0.067-1.04-1.11 c-0.005-3.185,0.012-6.368-0.008-9.553c-0.01-1.576,0.049-3.15-0.118-4.729c-0.952-8.996-7.427-16.647-16.221-19.256 c-1.347-0.399-2.729-0.477-4.104-0.645c-73.579,0-147.158,0-220.737,0c-0.661,0.166-1.351,0.082-2.012,0.226 c-7.811,1.687-13.267,6.256-16.49,13.526c-0.866,1.951-1.367,4.011-1.55,6.143c0,0.158,0,0.316,0,0.474 c0.129,0.316,0.129,0.632,0,0.947c0,72.947,0,145.896,0,218.843c0.129,0.315,0.129,0.632,0,0.947c0,0.368,0,0.737,0,1.105 c0.167,2,0.483,3.972,1.104,5.889c1.657,5.118,4.416,9.529,8.466,13.091c5.223,4.591,11.25,7.292,18.274,7.294 c78.207,0.021,156.414,0.01,234.621,0.024c4.42,0.001,8.54-1.102,12.429-3.104c4.734-2.438,8.548-5.914,11.361-10.451 c2.923-4.714,4.51-9.826,4.51-15.398c0-16.815,0-33.63,0-50.445C340.843,253.21,340.821,253.188,339.092,253.188z M74.554,101.372c-5.179,0-9.376-2.793-11.131-7.393c-2.823-7.397,2.655-15.438,10.569-15.492 c3.5-0.023,6.999-0.004,10.499-0.004c67.438,0,134.876,0,202.315,0.001c5.599,0,10.136,3.549,11.409,8.918 c0.195,0.823,0.269,1.659,0.269,2.504c-0.001,3.604-0.017,7.21,0.016,10.814c0.005,0.592-0.193,0.665-0.711,0.663 c-5.946-0.018-11.894-0.011-17.84-0.011c-31.47,0-62.939,0-94.409,0C148.544,101.373,111.549,101.374,74.554,101.372z M220.425,263.489c-4.573,6.507-10.998,10.311-18.638,12.195c-4.425,1.092-8.936,1.315-13.467,1.329 c-2.21,0.006-4.42,0.038-6.63,0.003c-0.68-0.012-0.929,0.115-0.914,0.873c0.054,2.709,0.024,5.42,0.02,8.13 c-0.003,2.637-1.406,4.032-4.046,4.032c-3.026,0.001-6.052,0.004-9.078-0.001c-2.339-0.004-3.783-1.434-3.795-3.782 c-0.014-2.842-0.015-5.684,0.007-8.525c0.004-0.525-0.107-0.729-0.686-0.725c-3.236,0.027-6.473,0.031-9.709-0.003 c-0.608-0.007-0.662,0.225-0.658,0.728c0.021,2.763,0.012,5.525,0.01,8.287c-0.002,2.628-1.409,4.021-4.055,4.021 c-3.026,0.001-6.052,0.004-9.078-0.001c-2.335-0.004-3.774-1.445-3.78-3.794c-0.008-2.842-0.015-5.684,0.01-8.525 c0.005-0.542-0.136-0.718-0.698-0.712c-2.763,0.027-5.525,0.017-8.288,0.011c-2.268-0.006-3.257-1.009-3.258-3.284 c-0.001-2.474-0.004-4.947,0.001-7.42c0.004-2.048,1.066-3.104,3.114-3.105c2.79-0.002,5.579-0.023,8.367,0.017 c0.646,0.01,0.763-0.192,0.762-0.79c-0.016-14.813-0.013-29.627-0.013-44.441c0-14.761-0.005-29.522,0.016-44.284 c0.001-0.705-0.15-0.932-0.896-0.92c-2.973,0.047-5.946,0.023-8.92,0.018c-1.805-0.004-2.431-0.631-2.432-2.413 c-0.002-2.895-0.003-5.788,0-8.683c0.002-1.642,0.658-2.303,2.288-2.306c3.026-0.005,6.052-0.021,9.078,0.014 c0.664,0.008,0.9-0.11,0.886-0.849c-0.052-2.788-0.025-5.577-0.02-8.366c0.005-2.406,1.427-3.835,3.815-3.838 c3.105-0.004,6.21-0.005,9.314,0.001c2.269,0.004,3.767,1.474,3.78,3.738c0.017,2.868,0.018,5.736-0.008,8.604 c-0.005,0.538,0.122,0.714,0.688,0.709c3.21-0.028,6.42-0.03,9.63,0.001c0.599,0.005,0.746-0.164,0.739-0.751 c-0.032-2.789-0.019-5.578-0.013-8.367c0.005-2.55,1.403-3.935,3.96-3.936c3.052-0.001,6.104-0.004,9.157,0.002 c2.313,0.003,3.789,1.469,3.802,3.799c0.015,2.841,0.024,5.684-0.013,8.524c-0.008,0.613,0.177,0.729,0.75,0.728 c4.103-0.019,8.208-0.065,12.3,0.358c8.149,0.845,15.33,3.73,20.878,9.98c3.655,4.118,5.774,8.983,6.605,14.403 c0.898,5.858,0.428,11.593-1.881,17.096c-2.409,5.742-6.449,10.022-11.902,12.993c-0.092,0.05-0.187,0.097-0.277,0.149 c-0.196,0.113-0.496,0.151-0.481,0.449c0.017,0.309,0.322,0.288,0.533,0.362c0.668,0.234,1.349,0.437,2.003,0.705 c8.038,3.29,13.2,9.28,15.587,17.481C227.99,244.043,226.925,254.239,220.425,263.489z"></path> </g> <path fill-rule="evenodd" clip-rule="evenodd" fill="#010101" d="M153.21,242.654c0-6.603,0.006-13.206-0.013-19.809 c-0.001-0.542,0.119-0.702,0.684-0.701c12.101,0.021,24.203-0.041,36.303,0.05c5.511,0.042,10.415,1.86,14.326,5.9 c2.932,3.029,4.548,6.722,5.133,10.854c0.722,5.093,0.113,10.013-2.283,14.627c-2.936,5.652-7.603,8.724-13.939,9.333 c-2.335,0.225-4.667,0.313-7.01,0.312c-10.786-0.011-21.572-0.012-32.357,0.012c-0.679,0.002-0.866-0.138-0.862-0.847 C153.223,255.809,153.21,249.231,153.21,242.654z"></path> <path fill-rule="evenodd" clip-rule="evenodd" fill="#010101" d="M171.869,208.747c-5.842,0-11.684-0.01-17.525,0.015 c-0.592,0.003-0.728-0.142-0.727-0.729c0.02-11.499,0.02-22.998,0-34.497c-0.001-0.603,0.159-0.729,0.739-0.728 c10.552,0.019,21.104,0.003,31.655,0.02c3.113,0.005,6.178,0.374,9.173,1.307c3.03,0.943,5.433,2.726,6.99,5.438 c4.093,7.129,4.253,14.451,0.212,21.596c-2.886,5.101-7.699,7.411-13.467,7.541c-5.681,0.128-11.367,0.027-17.05,0.027 C171.869,208.74,171.869,208.743,171.869,208.747z"></path> </g> </g> <g id="Grey" display="none"> <g display="inline"> <path fill-rule="evenodd" clip-rule="evenodd" fill="#8B8B8B" d="M50.079,86.215c0.316,0.316,0.163,0.632,0,0.947 C50.079,86.847,50.079,86.531,50.079,86.215z"></path> <path fill-rule="evenodd" clip-rule="evenodd" fill="#8B8B8B" d="M50.079,306.005c0.217,0.315,0.277,0.632,0,0.947 C50.079,306.637,50.079,306.32,50.079,306.005z"></path> <g> <path fill-rule="evenodd" clip-rule="evenodd" fill="#8B8B8B" d="M350.079,232.11c-0.283,0.184-0.223,0.509-0.286,0.767 c-1.078,4.364-4.906,7.433-9.401,7.438c-14.048,0.016-28.096,0.042-42.144-0.006c-11.007-0.037-20.383-8.29-21.939-19.19 c-1.779-12.46,6.691-23.812,19.108-25.597c1.094-0.157,2.197-0.211,3.305-0.21c13.758,0.006,27.517-0.012,41.275,0.013 c4.27,0.008,7.459,1.892,9.359,5.774c0.324,0.665,0.485,1.409,0.723,2.116C350.079,212.847,350.079,222.479,350.079,232.11z"></path> <path fill-rule="evenodd" clip-rule="evenodd" fill="#8B8B8B" d="M339.092,253.188c-12.894-0.001-25.788,0.01-38.683-0.012 c-1.89-0.003-3.786-0.074-5.667-0.286c-9.433-1.064-17.303-5.17-23.325-12.495c-6.713-8.164-9.296-17.633-7.648-28.058 c1.795-11.362,7.859-19.937,17.922-25.545c4.998-2.786,10.419-4.189,16.18-4.185c13.552,0.013,27.104,0.004,40.656,0.004 c1.974,0,2.001-0.027,2.001-1.966c0.001-16.499-0.003-32.998,0.009-49.497c0-1.215-0.089-2.423-0.221-3.62 c-0.776-7.027-3.629-13.076-8.702-18.034c-5.352-5.23-11.815-7.924-19.254-8.354c-1.003-0.059-1.039-0.067-1.04-1.11 c-0.005-3.185,0.012-6.368-0.008-9.553c-0.01-1.576,0.049-3.15-0.118-4.729c-0.952-8.996-7.427-16.647-16.221-19.256 c-1.347-0.399-2.729-0.477-4.104-0.645c-73.579,0-147.158,0-220.737,0c-0.661,0.166-1.351,0.082-2.012,0.226 c-7.811,1.687-13.267,6.256-16.49,13.526c-0.866,1.951-1.367,4.011-1.55,6.143c0,0.158,0,0.316,0,0.474 c0.129,0.316,0.129,0.632,0,0.947c0,72.947,0,145.896,0,218.843c0.129,0.315,0.129,0.632,0,0.947c0,0.368,0,0.737,0,1.105 c0.167,2,0.483,3.972,1.104,5.889c1.657,5.118,4.416,9.529,8.466,13.091c5.223,4.591,11.25,7.292,18.274,7.294 c78.207,0.021,156.414,0.01,234.621,0.024c4.42,0.001,8.54-1.102,12.429-3.104c4.734-2.438,8.548-5.914,11.361-10.451 c2.923-4.714,4.51-9.826,4.51-15.398c0-16.815,0-33.63,0-50.445C340.843,253.21,340.821,253.188,339.092,253.188z M74.554,101.372c-5.179,0-9.376-2.793-11.131-7.393c-2.823-7.397,2.655-15.438,10.569-15.492 c3.5-0.023,6.999-0.004,10.499-0.004c67.438,0,134.876,0,202.315,0.001c5.599,0,10.136,3.549,11.409,8.918 c0.195,0.823,0.269,1.659,0.269,2.504c-0.001,3.604-0.017,7.21,0.016,10.814c0.005,0.592-0.193,0.665-0.711,0.663 c-5.946-0.018-11.894-0.011-17.84-0.011c-31.47,0-62.939,0-94.409,0C148.544,101.373,111.549,101.374,74.554,101.372z M220.425,263.489c-4.573,6.507-10.998,10.311-18.638,12.195c-4.425,1.092-8.936,1.315-13.467,1.329 c-2.21,0.006-4.42,0.038-6.63,0.003c-0.68-0.012-0.929,0.115-0.914,0.873c0.054,2.709,0.024,5.42,0.02,8.13 c-0.003,2.637-1.406,4.032-4.046,4.032c-3.026,0.001-6.052,0.004-9.078-0.001c-2.339-0.004-3.783-1.434-3.795-3.782 c-0.014-2.842-0.015-5.684,0.007-8.525c0.004-0.525-0.107-0.729-0.686-0.725c-3.236,0.027-6.473,0.031-9.709-0.003 c-0.608-0.007-0.662,0.225-0.658,0.728c0.021,2.763,0.012,5.525,0.01,8.287c-0.002,2.628-1.409,4.021-4.055,4.021 c-3.026,0.001-6.052,0.004-9.078-0.001c-2.335-0.004-3.774-1.445-3.78-3.794c-0.008-2.842-0.015-5.684,0.01-8.525 c0.005-0.542-0.136-0.718-0.698-0.712c-2.763,0.027-5.525,0.017-8.288,0.011c-2.268-0.006-3.257-1.009-3.258-3.284 c-0.001-2.474-0.004-4.947,0.001-7.42c0.004-2.048,1.066-3.104,3.114-3.105c2.79-0.002,5.579-0.023,8.367,0.017 c0.646,0.01,0.763-0.192,0.762-0.79c-0.016-14.813-0.013-29.627-0.013-44.441c0-14.761-0.005-29.522,0.016-44.284 c0.001-0.705-0.15-0.932-0.896-0.92c-2.973,0.047-5.946,0.023-8.92,0.018c-1.805-0.004-2.431-0.631-2.432-2.413 c-0.002-2.895-0.003-5.788,0-8.683c0.002-1.642,0.658-2.303,2.288-2.306c3.026-0.005,6.052-0.021,9.078,0.014 c0.664,0.008,0.9-0.11,0.886-0.849c-0.052-2.788-0.025-5.577-0.02-8.366c0.005-2.406,1.427-3.835,3.815-3.838 c3.105-0.004,6.21-0.005,9.314,0.001c2.269,0.004,3.767,1.474,3.78,3.738c0.017,2.868,0.018,5.736-0.008,8.604 c-0.005,0.538,0.122,0.714,0.688,0.709c3.21-0.028,6.42-0.03,9.63,0.001c0.599,0.005,0.746-0.164,0.739-0.751 c-0.032-2.789-0.019-5.578-0.013-8.367c0.005-2.55,1.403-3.935,3.96-3.936c3.052-0.001,6.104-0.004,9.157,0.002 c2.313,0.003,3.789,1.469,3.802,3.799c0.015,2.841,0.024,5.684-0.013,8.524c-0.008,0.613,0.177,0.729,0.75,0.728 c4.103-0.019,8.208-0.065,12.3,0.358c8.149,0.845,15.33,3.73,20.878,9.98c3.655,4.118,5.774,8.983,6.605,14.403 c0.898,5.858,0.428,11.593-1.881,17.096c-2.409,5.742-6.449,10.022-11.902,12.993c-0.092,0.05-0.187,0.097-0.277,0.149 c-0.196,0.113-0.496,0.151-0.481,0.449c0.017,0.309,0.322,0.288,0.533,0.362c0.668,0.234,1.349,0.437,2.003,0.705 c8.038,3.29,13.2,9.28,15.587,17.481C227.99,244.043,226.925,254.239,220.425,263.489z"></path> </g> <path fill-rule="evenodd" clip-rule="evenodd" fill="#8B8B8B" d="M153.21,242.654c0-6.603,0.006-13.206-0.013-19.809 c-0.001-0.542,0.119-0.702,0.684-0.701c12.101,0.021,24.203-0.041,36.303,0.05c5.511,0.042,10.415,1.86,14.326,5.9 c2.932,3.029,4.548,6.722,5.133,10.854c0.722,5.093,0.113,10.013-2.283,14.627c-2.936,5.652-7.603,8.724-13.939,9.333 c-2.335,0.225-4.667,0.313-7.01,0.312c-10.786-0.011-21.572-0.012-32.357,0.012c-0.679,0.002-0.866-0.138-0.862-0.847 C153.223,255.809,153.21,249.231,153.21,242.654z"></path> <path fill-rule="evenodd" clip-rule="evenodd" fill="#8B8B8B" d="M171.869,208.747c-5.842,0-11.684-0.01-17.525,0.015 c-0.592,0.003-0.728-0.142-0.727-0.729c0.02-11.499,0.02-22.998,0-34.497c-0.001-0.603,0.159-0.729,0.739-0.728 c10.552,0.019,21.104,0.003,31.655,0.02c3.113,0.005,6.178,0.374,9.173,1.307c3.03,0.943,5.433,2.726,6.99,5.438 c4.093,7.129,4.253,14.451,0.212,21.596c-2.886,5.101-7.699,7.411-13.467,7.541c-5.681,0.128-11.367,0.027-17.05,0.027 C171.869,208.74,171.869,208.743,171.869,208.747z"></path> </g> </g> </svg>